<svg width="122" height="133" viewBox="0 0 122 133" fill="none" xmlns="http://www.w3.org/2000/svg">
<circle cx="63" cy="63" r="50" fill="url(#paint0_linear_1_33)"/>
<path d="M53.064 98.152C50.184 98.152 47.752 96.968 45.768 94.6C43.848 92.168 42.888 89.192 42.888 85.672C42.888 82.152 43.336 75.944 44.232 67.048C45.128 58.152 45.576 51.816 45.576 48.04C45.576 44.264 45.16 41.32 44.328 39.208L40.392 31.912L40.776 30.472C45.96 29.384 52.392 28.84 60.072 28.84C60.712 31.272 61.032 35.016 61.032 40.072C61.032 45.128 60.392 52.488 59.112 62.152C57.896 71.752 57.288 78.152 57.288 81.352C57.288 84.488 58.28 86.056 60.264 86.056C62.248 86.056 64.776 84.36 67.848 80.968C70.984 77.576 73.96 73.128 76.776 67.624C79.592 62.056 81.32 56.712 81.96 51.592L71.784 45.64C72.296 40.776 73.48 36.904 75.336 34.024C77 31.464 78.376 29.832 79.464 29.128L80.136 28.648C84.04 28.648 86.984 29.672 88.968 31.72C91.016 33.768 92.04 36.2 92.04 39.016C92.04 45.992 89.96 54.152 85.8 63.496C81.64 72.84 76.456 80.968 70.248 87.88C64.04 94.728 58.312 98.152 53.064 98.152Z" fill="black"/>
<path fill-rule="evenodd" clip-rule="evenodd" d="M112.681 78.9617C118.259 76.5093 121.471 73.6247 121.492 70.5207C121.554 61.2975 93.4189 53.6301 58.6495 53.3951C32.1341 53.216 9.41784 57.4111 0.0992551 63.5036C11.0959 58.6688 31.2885 55.5139 54.3568 55.6697C89.1261 55.9047 117.262 63.572 117.199 72.7953C117.185 74.9848 115.582 77.0652 112.681 78.9617Z" fill="#FF0A0A"/>
<defs>
<linearGradient id="paint0_linear_1_33" x1="63" y1="13" x2="63" y2="113" gradientUnits="userSpaceOnUse">
<stop stop-color="white"/>
<stop offset="1" stop-color="white" stop-opacity="0.8"/>
</linearGradient>
</defs>
</svg>
